<svg id="Layer_1" data-name="Layer 1" xmlns="http://www.w3.org/2000/svg" viewBox="0 0 736.66 384.89"><defs><style>.cls-1{fill:#2647b2;}</style></defs><title>Artboard 152</title><path class="cls-1" d="M601.77,90.05q6.26,0,12.62-5t8.5-11q1.51-4.17-.39-6.09t-5.86-1.56A17.23,17.23,0,0,0,608.73,69a28,28,0,0,0-5.94,4.86,31.31,31.31,0,0,0-3.75,5,26,26,0,0,0-1.78,3.48Q594.47,90.05,601.77,90.05Z"/><path class="cls-1" d="M565.07,123.08a13.88,13.88,0,0,0-3.67.52,15.1,15.1,0,0,1-2.28.52,44.44,44.44,0,0,0-4.91,1.57,22.4,22.4,0,0,0-4.3,2.26c-1.38.93-3,2.14-4.81,3.65s-4.13,3.54-6.91,6.08q-13.12,12.18-26,24.52t-26.09,24.86q-12.78,12.16-25.78,24.51l-.9.85a6.72,6.72,0,0,0-1.83,1.41q-10.54,7-20.4,13A136.19,136.19,0,0,1,416,237.47a56.52,56.52,0,0,1-6.62,2.43,16.27,16.27,0,0,1-4.25.7,13.2,13.2,0,0,1-4.89-1.39c-2.09-.93-2.51-3.13-1.24-6.61a29.28,29.28,0,0,1,4.88-8.17,108.09,108.09,0,0,1,7.86-8.69q4.36-4.35,8.77-8.34t7.51-6.79q21.45-18.77,42.91-36.68t43.12-36.33l1.43-1a5.11,5.11,0,0,0,1.58-2.44c.5-1.39.45-2.2-.16-2.43a4.69,4.69,0,0,0-1.61-.35,43.59,43.59,0,0,0-7.23,1.22,28,28,0,0,0-9.62,4,57.88,57.88,0,0,0-6.23,4.69q-2.56,2.26-8.16,7.13t-11,9.73q-5.43,4.88-11,9.74l-15.24,13.21q-7.62,6.62-15.59,13.21-4.53,3.84-9.2,7.13t-9.55,7.13c-.64.47-1.37,1-2.2,1.74A16,16,0,0,1,407.7,202l-17.55,12.86a262.34,262.34,0,0,1-27.88,17.38q-7.31,3.84-12.88,6.26T341,241q-4.87,0-4.67-3a17,17,0,0,1,.72-4.34q2-5.57,10.57-14.26t20.76-19.3q12.21-10.59,27.07-22.77T425,152.63L441.76,138q5.6-4.86,10.06-8.52t5.56-5.73c.19-1.16,0-1.86-.63-2.09a4.69,4.69,0,0,0-1.61-.35,9.63,9.63,0,0,0-4.71.52c-1.6.59-2.68,1-3.23,1.22a45.42,45.42,0,0,0-4.5,1.39,20,20,0,0,0-3.89,2.09q-2.07,1.39-4.5,3.3t-6.48,5.39l-35,30.25Q381,175.93,369.11,186.71T346.41,209c-1.17,1.21-2.26,2.36-3.29,3.47a9.15,9.15,0,0,0-1.09.7,5.29,5.29,0,0,1-1.77,1q-12.35,9-18.83,13t-13.33,7.48q-4.37,2.43-5.75,2.43c-1.16,0-1.77-.4-1.82-1.21a4.92,4.92,0,0,1,.18-1.92,5,5,0,0,1,1.28-2.08q.76-.71,3.05-3.13,7.54-8.35,8.82-11.82c.68-1.86.78-3.25.3-4.18a4.83,4.83,0,0,0-2-2.08,8,8,0,0,0-2.64-.87,16.26,16.26,0,0,0-2-.18,35.47,35.47,0,0,0-10.78,1.92q-5.91,1.91-11.06,3.65l103.73-75.8q10.58-5.21,17.37-9a45.4,45.4,0,0,0,10.73-8,23.24,23.24,0,0,0,2-2.26,8.71,8.71,0,0,0,1.35-2.26c.42-1.16.17-1.92-.75-2.26a6.45,6.45,0,0,0-2.07-.53,13.54,13.54,0,0,0-6.65,1.57q-2.83,1.56-8.39,5.39-3.67,2.43-6.69,4.52c-2,1.39-4.17,3-6.47,4.87q-3.16,1-9,2.78A48.89,48.89,0,0,1,367,136a15.48,15.48,0,0,1-5.31-.7,8.54,8.54,0,0,1-3.51-2.78l9.41-8.17a16.47,16.47,0,0,0,4.95-6.43c.93-2.55.48-4.06-1.31-4.52a19.39,19.39,0,0,0-3.4-.7,15.92,15.92,0,0,0-9.67,3.65,24.75,24.75,0,0,0-7.28,8.52,16.47,16.47,0,0,0-1.58,4.35,26.94,26.94,0,0,1-.73,3l-15.19,11.65-15.19,11.65q-5.56,3.83-10.95,7.64t-11,7.65c-6.18,4.3-11.31,6.09-18.13,9.22s-13.56,6.2-20.21,9.21L273,172.45q7.54-8.34,15.59-17,5.28-5.91,10.84-11.65t11.2-11.65q9.7-10.43,18.75-20t18.3-18.78q9.27-9.21,18.93-18.08t20.94-17.9A390.38,390.38,0,0,1,420.27,33a249.15,249.15,0,0,1,35.64-19.12q10.33-.69,17.85-1.74a55,55,0,0,0,12-2.78q6.91-2.78,8.19-6.26c.42-1.16.19-2-.68-2.43a6.36,6.36,0,0,0-3.05-.7,71.89,71.89,0,0,0-22.47,3.48Q457,7,453.42,8.34,447.6,9,435.5,10.78t-28.09,5q-16,3.32-34.8,8.69A376.74,376.74,0,0,0,334.18,37.9a274.43,274.43,0,0,0-36.37,18.25q-15,9.23-22.49,15.47-14.4,11.84-21.91,22.95T243.6,112a50.7,50.7,0,0,0-1.38,5.22,45,45,0,0,0-1,8.52,35.47,35.47,0,0,0,1,9.56,15.84,15.84,0,0,0,5.13,8.34c1.88,1.86,3.39,2.79,4.55,2.79a7.18,7.18,0,0,0,2.45-.53c.94-.34,1.49-.75,1.66-1.21.34-.93.07-2.09-.82-3.48a14.15,14.15,0,0,1-1.94-2.78,13.77,13.77,0,0,1-.8-2.09,23.63,23.63,0,0,1-.68-12,67.49,67.49,0,0,1,2.23-8.52q3.79-10.43,13.11-21.21A150.69,150.69,0,0,1,286.32,75.8q5.81-4.51,11.55-8.35t10.88-7q5.13-3.14,9.2-5.22t6.18-3.13a287.38,287.38,0,0,1,29.25-13q14.31-5.38,26.42-9t21.38-5.73q9.27-2.09,14.18-3.13l10.49-2.09L436.35,17q-12.5,6.6-22.12,12.51T397,40.68q-7.64,5.22-13.8,9.73t-11.51,8.7q-5.82,4.52-12.53,10.08T344.36,82.05q-8.06,7.31-17.59,16.35T306,119.26q-4.43,4.51-8.33,9t-8.33,9q-4.56,4.86-8.81,9.38l-8.8,9.39q-10,11.13-20,22.43t-20,22.42Q220,206.52,208.1,211.39q-9.51,4.17-18.79,8.17t-18.79,8.17q-8.36,3.84-16.41,7.83t-16.19,8.17q-5.05,2.43-13.29,6.43t-18.78,9.56q-10.55,5.56-22.93,12.87t-25.29,16a269.72,269.72,0,0,0-22.4,16.17,183,183,0,0,0-13.84,12.69q-1.07,1-3.59,3.65c-1.67,1.74-3.47,3.82-5.4,6.26a93.43,93.43,0,0,0-5.76,8.17,47.33,47.33,0,0,0-4.51,9q-3.66,10.08-1,14.77t5.83,6.44a25.74,25.74,0,0,0,12.2,2.78,56.54,56.54,0,0,0,9-.87A105.15,105.15,0,0,0,42,364a207.32,207.32,0,0,0,24.76-10.26q14.11-6.78,35.3-21,11.82-7.67,23.33-16.35,8.07-5.91,15.21-12.16l14.29-12.52q8.09-7,16.14-14.26t15.7-14.95q16.13-15.65,31.38-31.29t30.81-31.64q10.82-4.86,21.91-9.56t22-9.91c3.68-1.74,13.6-9,21.77-14.82q5.44-3.81,10.9-7.6a293.68,293.68,0,0,0,24.46-19,15,15,0,0,0,6.84,3.65,35.33,35.33,0,0,0,5.89.52,40.67,40.67,0,0,0,7.56-.7q3.72-.69,5.24-1l-113.4,81.36q-7,3.82-14.21,8a87.09,87.09,0,0,0-13.33,9.38q-3.79,2.79-4.68,5.22c-.42,1.16-.23,1.91.57,2.26a5.09,5.09,0,0,0,1.9.52,14.3,14.3,0,0,0,3.14-.52,21.2,21.2,0,0,0,4.7-1.91A91.6,91.6,0,0,0,251.59,239q5.5-3.65,11.63-7.12a144.27,144.27,0,0,1,19.89-9.74q9.74-3.82,12.86-3.82,3.48,0,2.94,2.43a11.47,11.47,0,0,1-2.13,3.48c-1,1.16-2.43,2.66-4.26,4.52q-7.78,8-9.64,12.17a8.29,8.29,0,0,0-.37,4.34c.27,1.51,1.86,2.38,4.79,2.61q7,0,19.41-5.56a162.67,162.67,0,0,0,23.69-13.52,48,48,0,0,0-2.24,4.48,21,21,0,0,0-.87,3.82,11.92,11.92,0,0,0,.21,4.7,7.37,7.37,0,0,0,2.71,4q2.16,1.74,6.67,1.74,7,0,16.17-3.82a144.28,144.28,0,0,0,18.54-9.39q9.33-5.55,17.8-11.65T404,212.09q-4.21,4.88-7.83,9.56a37,37,0,0,0-5.52,9.91,29.87,29.87,0,0,0-1.25,4.87,13.36,13.36,0,0,0,.13,5.39,7.12,7.12,0,0,0,3.28,4.34q2.67,1.74,7.89,1.74A37.13,37.13,0,0,0,411.68,246a92.49,92.49,0,0,0,12-4.7A131.88,131.88,0,0,0,435.31,235l1.53-.91-2.38,2.3q-6,5.91-11.83,11.47t-11.82,11.47q-6,5.91-12.41,11.65T386,282.67q-19.23,18.42-39,35.46-5.72,5.22-11.9,10.26t-12.26,10.26q-12.94,10.77-22.92,20T286,372a49.1,49.1,0,0,0-3.3,3.83,17.83,17.83,0,0,0-2.87,4.52c-.58,1.62-.49,2.78.3,3.48a3.39,3.39,0,0,0,1.88,1q2.44,0,7.16-3a119.23,119.23,0,0,0,10.08-7.12q8.44-7,16.66-14.26T332,346q4.65-4.17,9.12-8.35t9.25-8.69q6.93-6.6,13.78-13t14.36-12.69q11.3-9,25.84-18.95t27.08-17.55q6.27-3.84,12.22-7.31t12.09-7q8.85-5.22,17.23-10.08t15.7-9.22q7.32-4.34,12.76-7.82a51.53,51.53,0,0,0,7.58-5.56,9.15,9.15,0,0,0,2.15-2.09,7.68,7.68,0,0,0,1-1.74,2.71,2.71,0,0,0-.2-2.78c-.56-.69-1-1-1.19-1q-1,0-4.83,2.78-14.81,10.09-29.72,18.6T446.3,250.68q-10.14,5.91-20,12T406.5,275q10.62-10.09,21.72-20.51T449.94,234l13.6-12.51L477.14,209q10.74-10.43,21.61-20.69t22.17-20.34q5.6-4.86,11.5-10.08T544,147.42q5.12-4.51,10.13-9.21t10.26-9.57a16.37,16.37,0,0,1,1.38-1.39,4.22,4.22,0,0,0,1.15-1.74C567.55,123.9,566.92,123.08,565.07,123.08Zm-362,107.78q-8.37,8.7-17.45,17.39-8.25,8.34-17,16.69T150.9,281.63q-8.34,7.64-16.57,14.95t-17,14.25q-10.93,9-24,18.26T67.94,345.25q-9.54,5.22-17.59,8.69a85.5,85.5,0,0,1-12.25,4.52,38.44,38.44,0,0,1-7.59,1.74c-2.17.23-3.71.35-4.64.35q-5.22,0-7.6-1.56A7.88,7.88,0,0,1,15,355a10.13,10.13,0,0,1-.43-5,25.2,25.2,0,0,1,1.06-4.35,51.3,51.3,0,0,1,9-14.78,149.62,149.62,0,0,1,14.78-15.29Q47.77,308,56,301.62T70.65,291q7.34-4.87,15-9.73t15.59-9.39q10.62-6.25,21.58-12T145,248.25q8.94-4.51,17.59-8.69t17.82-8.35q9.76-4.86,19.69-9.21l20.27-8.87Q211.48,222.18,203.1,230.86Z"/><path class="cls-1" d="M735.81,59.45a10.85,10.85,0,0,0-2.13-.34,18.14,18.14,0,0,0-5.53.87,17,17,0,0,1-3.45.87,25.56,25.56,0,0,0-6.42,3.3c-1.31,1-3.19,2.73-5.66,5L589,190.18a11.93,11.93,0,0,0-3.13,3.83,7.22,7.22,0,0,0-.2,2.43c0,1.17.88,1.74,2.5,1.74a5.38,5.38,0,0,0,2.86-.69q1.13-.7,2.55-1.74L733.93,66.06a14.35,14.35,0,0,0,1.44-1.56,9.61,9.61,0,0,0,.87-1.92C736.91,60.73,736.77,59.69,735.81,59.45Z"/><path class="cls-1" d="M555.45,221.13q-6.39.35-13.51,6.08t-9.41,12q-2.16,5.91.47,7.3a10.36,10.36,0,0,0,4.71,1.39q4.86,0,10.56-4.17a48.44,48.44,0,0,0,8.82-8,23,23,0,0,0,2.74-4.17q.79-1.74,1-2.43c.93-2.55.89-4.52-.1-5.92S558,221.13,555.45,221.13Z"/></svg>