<svg id="Layer_1" data-name="Layer 1" xmlns="http://www.w3.org/2000/svg" viewBox="0 0 728.63 380.21"><defs><style>.cls-1{fill:#3f490b;}</style></defs><title>Artboard 145</title><path class="cls-1" d="M402.1,41.43c-42.23,30.64-75.86,67.32-147.45,145.44,23.62-10.36,52.5-23.31,70.24-34.1,1.61-.86,4-2.59,7-2.59,1.73,0,1.85.87,1.53,1.73-3.45,9.49-70.79,38-87.54,44.88-55,57.4-63.58,65.6-89.76,88.9C74.94,356.9,31.43,363.81,18.92,363.81c-13.38,0-23.27-6-17-23.31,16.18-44.45,118.79-92.78,158.93-111.77,9.49-4.75,57.17-25.46,68-30.21,84.5-95.81,130.42-143.71,202.5-181.69-35.74,6.91-86.67,16.4-135.56,48.77-35.67,23.3-43.53,44.88-45.1,49.2-4.4,12.08-1.89,19.42-.67,22,.27.43,3,6,3,6-.47,1.29-2.79,1.72-4.08,1.72-5.18,0-16.16-12.51-8.31-34.09C250.33,83.72,299,27.19,447.85,8.2,460.37,3.45,472.42,0,484.5,0c3,0,4.28,1.29,3.8,2.59-1.88,5.18-7.26,6.9-15.22,8.63-7.81,1.3-14.87,1.73-22.52,2.59C441.42,16.4,414.46,32.37,402.1,41.43ZM194.34,221c-16.48,7.34-32.69,15.1-48.46,22.87-103.17,52.22-125.74,84.59-130.6,98-3.15,8.63.27,14.67,10.19,14.67,14.67,0,54-12.08,136.25-89.76,8-7.77,55.81-56.11,55.81-56.11Z"/><path class="cls-1" d="M377.93,139.83a40.48,40.48,0,0,1-12.28,1.72c-7.77,0-10-2.15-12.67-4.31-14.17,11.65-50.08,38-54,38-2.16,0-2.67-2.15-2-3.88.32-.86,1.49-1.73,2.67-2.59,18.37-12.51,25.43-17.69,51.8-38a22.73,22.73,0,0,1,1-5.18c2.67-7.33,11.07-13.81,17.54-13.81,1.73,0,6.75.44,5.18,4.75-1.1,3-2.86,4.32-14.68,14.24,1.65,2.59,2.91,3.89,8.52,3.89a53.48,53.48,0,0,0,22.87-4.75c11.19-8.2,21.35-16,27.82-16,.87,0,4.32,0,3.22,3-2.2,6-12.87,11.66-31,21.15l-102.7,74.66c7-2.59,15.42-5.61,21.46-5.61,4.32,0,8.87,1.73,7,6.91-1.1,3-13.3,16.39-13.62,17.26a2.16,2.16,0,0,0,1.92,3c6,0,40.46-24.6,41.33-24.6,1.29,0,1.8,2.16,1,4.32-1.88,5.17-39.63,30.64-56.89,30.64-4.32,0-6-2.59-4.55-6.48,1.25-3.45,3.92-6,11.38-14.67a15,15,0,0,0,4-5.18c.94-2.59-1.21-2.59-2.51-2.59-2.16,0-16.36,3.45-33.66,14.24-23.16,13.81-25.2,14.68-29.67,15.11-1.73,0-3-1.3-2.35-3,2-5.61,21.5-16.4,31.74-22Z"/><path class="cls-1" d="M430.52,198.09c-8.71,7.33-25.71,22-29.32,31.93-2.83,7.77,4.94,7.77,5.37,7.77a22.93,22.93,0,0,0,9-2.16c16-6,29.82-15.53,43-24.6,1.61-.86,2.2-1.29,3.06-1.29,1.3,0,2.83,1.73,2,3.88-1.57,4.32-15,11.66-19,14.24-18.6,10.79-31.75,17.27-42.1,17.27-15.54,0-10.83-12.95-9.57-16.4a61.11,61.11,0,0,1,5.49-10.36l7.62-9.06s-45.25,35.39-66,35.39c-8.2,0-11.93-5.18-8.63-14.25,1.57-4.31,4.87-13.37,36.85-43.15,18.21-16.83,63.42-55.67,67.7-59.13,10.32-8.2,20.41-8.63,20.41-8.63,1.72,0,3.29.43,2.5,2.59a5.94,5.94,0,0,1-2.23,2.59c-8,7.77-74,62.15-87.44,74.23-6.36,5.61-26,22.87-29.16,31.5-.78,2.16-2.67,7.34,4.24,7.34,6,0,27.34-9.93,56.78-31.5,27.07-19.85,32.69-24.6,74.52-61.29,20.09-17.26,22-19,24.8-20.71,6-3.45,15.11-4.75,15.54-4.75,1.3,0,2.86.43,1.92,3l-.31.87c-.9,1.29-22.61,19.42-26.88,22.87l-35,29.78Z"/><path class="cls-1" d="M432.61,256.35c7.18-4.32,43.21-25,51.57-30.21,3.8-2.16,26.25-16.4,26.68-16.4.86,0,2,1.73,1.18,3.88-1.58,4.32-18.72,14.68-28.1,20.29C401.49,281.38,392.11,287,353,324.54c-24.3,22.87-58.24,55.67-68.17,55.67-1.73,0-2.82-1.73-1.88-4.32,2-5.61,16.09-18.12,22-23.74,8.28-7.33,49.48-42.29,58.35-50.06,23.39-21.57,136.62-129.9,162.4-154.5,20.29-19,27.55-25.89,38.77-25.89,1.3,0,3,0,2.08,2.59-.63,1.73-6,6.9-40.42,37.55-14.21,12.94-17.74,15.53-76.1,70.34-5.93,5.61-42.23,40.14-42.23,40.14C415.9,266.71,423.82,261.53,432.61,256.35ZM621.93,72.93c-3.29,9.07-14,16-20.48,16-3.45,0-7.14-1.72-5.1-7.33s9.66-14.68,18.76-16C620,65.17,624,67.32,621.93,72.93Z"/><path class="cls-1" d="M555.23,226.57c-2.83,7.77-15,18.56-23.59,18.56-1.73,0-7.61-.43-4.78-8.2C529.37,230,539.5,218.8,550,218.37,554.48,217.94,557.27,221,555.23,226.57ZM704.64,68.62c5.49-5.61,7.53-6.47,12.05-8.2a22.52,22.52,0,0,1,9-2.16c1.3,0,3.89,0,2.63,3.45-.63,1.73-.94,2.59-2.12,3.46L587.6,193.34c-2.35,1.73-3.53,2.59-5.69,2.59a2.77,2.77,0,0,1-2.47-3.88c.47-1.3,1.81-2.59,3.14-3.89Z"/></svg>