<svg id="Layer_1" data-name="Layer 1" xmlns="http://www.w3.org/2000/svg" viewBox="0 0 1003.33 200.74"><defs><style>.cls-1{fill:#e21414;}</style></defs><title>jzuj3</title><path class="cls-1" d="M219.11,40.73c0,26.1-13,70.82-39.4,110-18.9,28.22-44.46,49.79-90.79,49.79C23.16,200.48,0,162.14,0,125.66c0-33,21.57-53.51,46.86-61s57-2.4,61,18.37c7.45,38.33-57.78,42.59-66.3,68.68-8,24.5,15.18,41.54,47.13,41.54,49.25,0,68.42-42.87,67.09-83.6-1.07-34.61-8.25-37.54-10.12-64.7C144,21.57,158.14.27,182.37.27,207.93.27,219.11,19.44,219.11,40.73Z"/><path class="cls-1" d="M421.19,36.74c0-12.78-11.72-19.43-45.8-19.43-31.68,0-51.38,9.31-65.22,23.16C296.06,54.58,287.8,82.8,267.3,85.2c-19.17,2.13-30.88-20-32-41.27C234.29,22.9,245.74,0,268.63,0c17,0,19.17,5.33,78.81,5.33C398.29,5.33,420.39,0,435.83,0c21.83,0,25.29,19.17,23.43,27.42-2.4,10.92-12,19.7-36.21,34.08-47.66,28.22-88.92,38.07-127.53,61.23-22.09,13.32-33.54,27.16-30.88,40.47,2.93,14.38,18.11,22.63,41.8,22.63,25,0,45.53-9.58,61.5-26.09,15.44-15.71,23.16-42.33,49-42.33,20.5,0,30.08,21.56,26.89,40.47-4.26,25.82-23.43,42.86-50.85,42.86s-37.81-1.86-63.9-1.86c-33.81,0-44.73,1.86-65.49,1.86-21.84,0-35.95-7.19-40.21-19.7-3.46-9.85-1.59-26.62,12.78-37,32.48-23.43,125.13-58.83,155-76.14C407.34,58.57,421.19,50.58,421.19,36.74Z"/><path class="cls-1" d="M622.46,122.73c2.13-33.81-14.64-62.83-17-85.46S619,0,638.17,0c48.72,0,43.93,75.61,27.42,121.67-14.11,38.87-49.25,79.07-106.22,79.07-78.81,0-95.85-63.63-97.71-103C459,41.53,477.9,0,512.77,0c22.1,0,34.35,20,28.76,39.14-6.39,21.56-26.89,31.94-36.21,71.61-7.72,32.75,3.46,82.8,54.05,82.8C598.5,193.55,620.33,155,622.46,122.73Z"/><path class="cls-1" d="M904.94,40.73c0,26.1-13,70.82-39.4,110-18.9,28.22-44.46,49.79-90.79,49.79-65.75,0-88.92-38.34-88.92-74.82,0-33,21.57-53.51,46.86-61s57-2.4,61,18.37c7.45,38.33-57.78,42.59-66.29,68.68-8,24.5,15.17,41.54,47.12,41.54,49.25,0,68.42-42.87,67.09-83.6-1.07-34.61-8.25-37.54-10.12-64.7C829.87,21.57,844,.27,868.2.27,893.76.27,904.94,19.44,904.94,40.73Z"/><path class="cls-1" d="M938.49,199.68a17.56,17.56,0,0,1-17.57-17.57,17.33,17.33,0,0,1,17.57-17.31c10.12,0,17.57,7.45,17.57,17.31A17.22,17.22,0,0,1,938.49,199.68Zm21-56.71c-10.64,12.51-29.28,12.78-34.34-5.59-4.79-17-5.86-63.9.27-97.18C930,15.44,944.35,0,967.78,0c27.69,0,37.8,22.36,35.14,49.25C999.73,80.94,976.56,123,959.52,143Z"/></svg>