<svg xmlns="http://www.w3.org/2000/svg" width="757" height="325" viewBox="0 0 757 325">
  <g transform="translate(-18.237 -6.865)">
    <path d="M65.2,73.1080149 C65.2,76.3280149 62.21,77.9380149 126.38,92.8880149 C149.61,98.4080149 160.42,110.598015 160.42,121.868015 C160.42,167.638015 80.15,174.998015 47.03,174.998015 C38.06,174.998015 10,174.998015 10,161.658015 C10,156.828015 18.05,144.638015 21.73,141.188015 C24.49,138.888015 38.06,134.518015 41.51,134.518015 C42.66,134.518015 43.35,134.748015 43.35,136.128015 C43.35,138.428015 41.05,139.578015 39.44,140.498015 C38.06,141.418015 36.91,142.568015 35.53,143.948015 L35.53,144.408015 C117.64,147.398015 140.18,123.708015 140.18,120.028015 C140.18,108.298015 76.47,99.0980149 65.43,97.2580149 C53.93,95.4180149 41.97,91.7380149 41.97,77.9380149 C41.97,70.3480149 45.65,53.5580149 49.33,47.3480149 C56.46,35.6180149 98.09,13.7680149 148.46,13.7680149 C158.12,13.7680149 167.78,14.9180149 177.44,16.9880149 C182.73,18.1380149 183.42,19.9780149 183.42,24.5780149 C183.42,41.5980149 177.67,45.5080149 164.1,50.7980149 C154.21,54.4780149 152.37,55.6280149 143.4,62.0680149 C141.79,62.9880149 139.49,64.3680149 137.65,64.3680149 C135.35,64.3680149 133.97,63.2180149 133.97,60.9180149 C133.97,60.4580149 138.34,53.3280149 150.76,44.8180149 L150.3,44.3580149 C90.96,46.4280149 65.43,67.8180149 65.2,73.1080149 Z" transform="rotate(-7 96.71 94.383)"/>
    <path d="M218.372661,114.675018 L241.142661,94.2050182 C245.972661,89.8350182 268.512661,67.9850182 274.262661,67.9850182 C276.102661,67.9850182 278.632661,68.6750182 279.552661,80.6350182 C280.012661,86.1550182 273.802661,91.4450182 270.122661,94.6650182 C262.762661,101.335018 246.432661,119.505018 246.432661,129.855018 C246.432661,133.535018 248.502661,134.915018 252.182661,134.915018 C260.922661,134.915018 280.702661,118.815018 287.602661,113.295018 L288.982661,123.185018 C277.252661,134.455018 252.872661,160.905018 235.852661,160.905018 C227.342661,160.905018 222.282661,153.775018 222.282661,145.725018 C222.282661,138.825018 224.812661,132.385018 227.112661,126.405018 L226.652661,125.945018 C217.682661,133.765018 202.272661,154.465018 189.622661,154.465018 C178.352661,154.465018 172.142661,141.585018 172.142661,131.695018 C172.142661,109.385018 189.392661,86.3850182 204.112661,76.7250182 C207.332661,74.6550182 210.322661,74.1950182 214.232661,74.1950182 C217.452661,74.1950182 229.182661,72.1250182 228.262661,79.0250182 C227.802661,82.7050182 221.592661,89.1450182 219.062661,91.2150182 C211.932661,99.2650182 210.552661,101.335018 201.582661,107.775018 C194.452661,112.835018 188.932661,117.895018 188.932661,127.555018 C188.932661,128.705018 189.162661,131.005018 190.772661,131.005018 C194.912661,131.005018 207.562661,124.335018 218.372661,114.675018 Z" transform="rotate(-7 230.563 114.445)"/>
    <path d="M399.008842,91.3017402 L362.438842,124.88174 C357.148842,129.94174 348.868842,139.37174 341.048842,139.37174 C335.528842,139.37174 331.158842,135.23174 330.928842,129.71174 C330.698842,123.04174 336.218842,112.46174 351.168842,89.6917402 C351.628842,89.2317402 352.548842,87.3917402 352.548842,86.7017402 C352.548842,85.7817402 351.858842,85.0917402 350.938842,85.0917402 C348.638842,85.0917402 343.578842,90.6117402 341.968842,92.2217402 C330.008842,104.87174 317.128842,118.67174 306.318842,132.01174 C303.788842,135.00174 300.568842,138.45174 296.428842,138.45174 C285.388842,138.45174 282.168842,120.51174 282.168842,112.23174 C282.398842,89.6917402 306.778842,58.8717402 320.578842,60.7117402 C324.028842,61.1717402 330.928842,61.1717402 330.928842,66.0017402 C330.928842,70.6017402 324.488842,77.5017402 321.728842,80.7217402 C317.588842,85.5517402 312.528842,89.6917402 309.078842,94.7517402 C306.548842,98.2017402 302.408842,101.88174 302.408842,106.71174 C302.408842,107.17174 303.098842,108.78174 304.018842,108.78174 C305.168842,108.78174 307.928842,105.79174 308.618842,105.10174 C319.888842,93.3717402 360.828842,52.4317402 375.778842,52.4317402 C381.988842,52.4317402 385.208842,57.0317402 385.208842,63.0117402 C385.208842,73.1317402 368.878842,91.7617402 363.818842,100.73174 L364.278842,101.19174 L415.338842,60.9417402 C417.638842,59.1017402 423.388842,54.5017402 426.148842,54.5017402 C427.988842,54.5017402 430.288842,60.0217402 430.978842,60.9417402 C432.588842,63.4717402 435.118842,66.9217402 435.118842,70.1417402 C435.118842,74.0517402 430.518842,79.1117402 427.988842,81.8717402 C410.048842,101.65174 408.668842,105.33174 408.438842,110.62174 C408.208842,113.38174 411.198842,117.06174 413.958842,116.37174 C418.788842,115.22174 421.318842,115.22174 449.608842,95.9017402 L450.988842,106.71174 C440.178842,115.22174 407.058842,142.36174 394.178842,142.36174 C387.278842,142.36174 382.448842,135.69174 382.448842,129.02174 C382.448842,117.52174 393.718842,101.19174 399.468842,91.7617402 L399.008842,91.3017402 Z" transform="rotate(-7 366.579 97.397)"/>
    <path d="M561.091629,71.4004764 L524.521629,104.980476 C519.231629,110.040476 510.951629,119.470476 503.131629,119.470476 C497.611629,119.470476 493.241629,115.330476 493.011629,109.810476 C492.781629,103.140476 498.301629,92.5604764 513.251629,69.7904764 C513.711629,69.3304764 514.631629,67.4904764 514.631629,66.8004764 C514.631629,65.8804764 513.941629,65.1904764 513.021629,65.1904764 C510.721629,65.1904764 505.661629,70.7104764 504.051629,72.3204764 C492.091629,84.9704764 479.211629,98.7704764 468.401629,112.110476 C465.871629,115.100476 462.651629,118.550476 458.511629,118.550476 C447.471629,118.550476 444.251629,100.610476 444.251629,92.3304764 C444.481629,69.7904764 468.861629,38.9704764 482.661629,40.8104764 C486.111629,41.2704764 493.011629,41.2704764 493.011629,46.1004764 C493.011629,50.7004764 486.571629,57.6004764 483.811629,60.8204764 C479.671629,65.6504764 474.611629,69.7904764 471.161629,74.8504764 C468.631629,78.3004764 464.491629,81.9804764 464.491629,86.8104764 C464.491629,87.2704764 465.181629,88.8804764 466.101629,88.8804764 C467.251629,88.8804764 470.011629,85.8904764 470.701629,85.2004764 C481.971629,73.4704764 522.911629,32.5304764 537.861629,32.5304764 C544.071629,32.5304764 547.291629,37.1304764 547.291629,43.1104764 C547.291629,53.2304764 530.961629,71.8604764 525.901629,80.8304764 L526.361629,81.2904764 L577.421629,41.0404764 C579.721629,39.2004764 585.471629,34.6004764 588.231629,34.6004764 C590.071629,34.6004764 592.371629,40.1204764 593.061629,41.0404764 C594.671629,43.5704764 597.201629,47.0204764 597.201629,50.2404764 C597.201629,54.1504764 592.601629,59.2104764 590.071629,61.9704764 C572.131629,81.7504764 570.751629,85.4304764 570.521629,90.7204764 C570.291629,93.4804764 573.281629,97.1604764 576.041629,96.4704764 C580.871629,95.3204764 583.401629,95.3204764 611.691629,76.0004764 L613.071629,86.8104764 C602.261629,95.3204764 569.141629,122.460476 556.261629,122.460476 C549.361629,122.460476 544.531629,115.790476 544.531629,109.120476 C544.531629,97.6204764 555.801629,81.2904764 561.551629,71.8604764 L561.091629,71.4004764 Z" transform="rotate(-7 528.662 77.495)"/>
    <path d="M692.367507,60.7650066 L694.437507,69.5050066 C680.407507,85.8350066 655.107507,107.455007 632.337507,107.455007 C615.547507,107.455007 607.727507,92.5050066 607.267507,77.3250066 C606.347507,47.1950066 639.697507,16.3750066 669.597507,16.6050066 C676.957507,16.6050066 686.157507,18.4450066 686.157507,27.6450066 C686.157507,38.9150066 674.887507,55.9350066 630.727507,70.4250066 L630.267507,75.4850066 C629.577507,84.2250066 637.167507,87.2150066 644.527507,87.2150066 C660.857507,87.2150066 680.177507,70.4250066 692.367507,60.7650066 Z" transform="rotate(-7 650.843 62.03)"/>
    <path d="M629.985479,59.508562 C650.225479,52.608562 664.025479,36.738562 663.795479,32.828562 C663.795479,31.218562 662.645479,29.838562 661.035479,30.298562 C649.535479,33.288562 636.195479,44.328562 629.985479,59.508562 Z" transform="rotate(-7 646.892 44.859)"/>
    <path d="M730.476416,39.35 L706.556416,44.64 C698.506416,57.29 688.846416,63.27 678.956416,73.16 L678.036416,63.04 C684.016416,58.21 688.846416,52.46 693.216416,46.25 C688.386416,45.79 687.006416,43.95 687.006416,39.12 C687.006416,22.56 710.466416,6 715.986416,6 C718.286416,6 720.126416,7.84 720.126416,9.91 C720.126416,12.21 719.436416,14.28 718.516416,16.35 C740.136416,13.36 752.786416,10.6 755.086416,13.36 C758.536416,17.73 760.146416,21.41 760.606416,25.55 C760.606416,32.68 756.236416,36.13 750.946416,40.5 C744.276416,46.25 733.006416,57.52 733.006416,66.72 C733.006416,70.4 736.686416,73.16 740.136416,73.16 C750.026416,73.16 764.516416,58.21 772.106416,52.46 L773.716416,60.97 C764.976416,70.86 738.526416,96.39 725.416416,96.39 C715.756416,96.39 709.776416,87.42 709.776416,78.68 C709.776416,63.04 721.736416,50.85 730.936416,39.81 L730.476416,39.35 Z" transform="rotate(-7 725.876 51.195)"/>
    <path d="M385.651429,199.417162 L363.801429,207.697162 C362.881429,208.157162 358.511429,209.997162 357.591429,209.997162 C355.061429,209.997162 355.521429,206.087162 355.751429,204.707162 C356.211429,198.037162 360.811429,195.967162 366.331429,192.747162 C373.921429,188.377162 399.911429,172.967162 406.351429,172.967162 C412.331429,172.967162 416.931429,185.387162 416.931429,188.837162 C416.931429,195.507162 416.931429,194.817162 380.821429,256.227162 C372.771429,269.797162 353.911429,302.227162 353.911429,317.637162 C353.911429,320.397162 354.601429,322.927162 354.601429,325.687162 C354.601429,327.757162 353.451429,328.907162 351.381429,328.907162 C350.231429,328.907162 347.701429,327.527162 346.551429,326.837162 C337.811429,322.007162 327.921429,320.397162 327.921429,308.437162 C327.921429,296.937162 337.811429,271.407162 344.021429,261.057162 C360.811429,233.227162 379.441429,208.617162 386.111429,199.877162 L385.651429,199.417162 Z" transform="rotate(-7 372.426 250.937)"/>
    <path d="M523.598764,194.702715 L515.088764,199.992715 C512.558764,201.602715 510.718764,202.982715 507.728764,202.982715 C506.348764,202.982715 505.198764,201.602715 505.198764,200.222715 C505.198764,199.762715 504.048764,199.302715 517.158764,188.262715 L516.698764,187.802715 C461.498764,201.832715 442.868764,223.222715 442.868764,237.942715 C442.868764,240.472715 443.788764,241.622715 446.548764,241.622715 C464.258764,241.622715 494.388764,223.912715 507.728764,212.642715 C511.178764,209.882715 519.228764,202.982715 524.058764,202.982715 C526.818764,202.982715 536.478764,205.052715 536.478764,208.732715 C536.478764,212.412715 531.188764,218.622715 528.888764,221.152715 L468.398764,292.222715 C454.828764,308.092715 447.008764,312.922715 437.578764,313.842715 C434.818764,314.072715 432.518764,312.692715 432.518764,309.702715 C432.518764,306.712715 437.118764,300.272715 438.498764,297.972715 C442.408764,291.762715 443.558764,287.392715 451.608764,287.852715 L495.078764,236.102715 L494.618764,235.642715 C485.188764,242.312715 459.428764,258.412715 448.158764,258.412715 C440.338764,258.412715 419.638764,242.772715 419.638764,223.452715 C419.638764,195.162715 474.378764,158.592715 514.168764,159.282715 C523.138764,159.512715 536.708764,177.222715 536.708764,182.512715 C536.708764,187.802715 527.508764,192.402715 523.598764,194.702715 Z" transform="rotate(-7 478.174 236.57)"/>
  </g>
</svg>
