<svg viewBox="0 0 504 220.18" xmlns="http://www.w3.org/2000/svg"><path d="m73.88 33a2.15 2.15 0 0 0 2.72 2c1.21-.15 2.63-1.25 3.62-2 5.41-5 6.53-5.9 12.78-9.14 8.56-4.61 12-7.66 10.66-18.92-.38-3.05-1-4.21-4.58-4.54a91.44 91.44 0 0 0 -19.44.23c-33.34 4.09-59.11 21.94-62.88 30.28-1.93 4.41-3 15.82-2.38 20.84 1.12 9.14 9.34 10.6 17.09 10.88 7.46.33 50.37 1.24 51.32 9 .3 2.43-12.69 20-67.27 24.64v-.31a17.61 17.61 0 0 1 2.31-2.6c1-.74 2.42-1.69 2.23-3.21-.11-.91-.59-1-1.35-.91-2.28.28-10.91 4.27-12.55 6-2.16 2.6-6.53 11.32-6.16 14.52 1.08 8.83 19.65 6.55 25.58 5.82 21.92-2.69 74.45-14.08 70.73-44.38-.91-7.46-9.06-14.64-24.88-16.41-43.69-4.68-41.84-6-42.1-8.12-.28-3.52 14.88-19.75 54-25.94l.35.26c-7.52 6.65-9.84 11.72-9.8 12.01z"/><path d="m502.24 26.46c-4.55 4.43-12.93 15.5-19.47 16.3-2.29.28-4.95-1.25-5.25-3.68-.75-6.09 5.8-14.46 9.75-18.81 3.14-3.32 5.75-6 5.17-10.68a15.28 15.28 0 0 0 -4.64-7.59c-1.75-1.64-9.89 1.21-24 5a10.39 10.39 0 0 0 .54-4.39 2.72 2.72 0 0 0 -3.01-2.33c-3.66.44-17.84 13.31-16.49 24.27.39 3.2 1.45 4.3 4.69 4.21a62.14 62.14 0 0 1 -5.45 8.54c-7 7.07-16.05 15.43-24.71 16.49-4.88.6-10.14-.76-10.39-6.6l-.11-3.39c28.05-13.18 34.13-25.36 33.21-32.8-.75-6.09-7-6.56-11.86-6-16.33 1.9-32.47 18-35.92 34.66-16.62 14.59-18.32 14.83-21.38 16-1.78.68-4.05-1.51-4.13-3.36-.27-3.52.34-6.06 10.61-20.61 1.45-2 4.08-5.76 3.76-8.34-.26-2.14-2.21-4.21-3.49-5.76-.53-.55-2.5-4-3.72-3.87-1.82.23-5.25 3.74-6.63 5.15l-30.52 30.75-.34-.27c2.62-6.34 11.91-20 11.09-26.7-.48-4-3-6.74-7.1-6.23-9.9 1.21-33.67 31.63-40.17 40.31-.4.51-2 2.72-2.74 2.81s-1.2-.93-1.24-1.24c-.39-3.19 2.05-6 3.44-8.46 1.88-3.62 4.89-6.77 7.23-10.31 1.57-2.35 5.27-7.44 4.9-10.49s-5-2.63-7.28-2.66c-7.21-.07-17 13.42-20.26 26.44-16.74 14.71-18.43 14.94-21.51 16.08-1.77.68-4.05-1.51-4.12-3.35-.28-3.52.34-6.07 10.6-20.62 1.45-2 4.08-5.76 3.76-8.34-.25-2.13-2.21-4.21-3.48-5.75-.53-.56-2.5-4-3.72-3.87-1.82.22-5.26 3.73-6.63 5.14l-30.52 30.78-.34-.26c2.61-6.35 11.91-20 11.09-26.71-.49-4-3-6.74-7.11-6.23-9.89 1.21-33.66 31.63-40.16 40.31-.4.51-2 2.71-2.75 2.8-.61.08-1.2-.93-1.23-1.23-.4-3.2 2-6 3.44-8.46 1.87-3.63 4.88-6.78 7.23-10.31 1.57-2.36 5.27-7.45 4.9-10.49-.39-3.2-5-2.64-7.28-2.67-7.39-.06-17.5 14.1-20.5 27.42-4.71 4.82-15.4 15.63-20.82 16.3-2.43.29-3.91-.45-4.21-2.89-.84-6.85 8.49-20.2 12.82-25.21 2.17-2.43 5.85-6.44 5.1-10-1.59-7.84-3.31-8.09-4.53-7.94-3.81.46-17 16.76-19.79 20l-13.41 15.4c-6.36 7.28-14.16 12.7-16.94 13.04-1.06.13-1.4-1.37-1.5-2.13-.78-6.4 2.46-10.2 6.77-14.12 5.42-5 6.16-6.48 10.22-12.39 1.51-1.57 5.1-6.34 5.1-8.81.05-4.64-7.55-2.32-9.68-2.06a11.45 11.45 0 0 0 -6.49 2.5c-9 7.59-18.5 24.21-16.69 39 .8 6.54 6 14.56 13.42 13.65 8.37-1 16.89-16 22.19-21.89l.34.27c-1 4.14-2.19 8.61-1.63 13.18.66 5.33 4.58 9.64 10.22 8.94 9.66-1.18 21.32-15.69 28.77-25.1v.09c.67 5.48 4.26 17.09 11.57 16.2 2.74-.34 4.59-2.89 6-5.07 6.07-9.71 13.48-19.89 20.36-29.23.94-1.2 3.84-5.26 5.36-5.45a1.06 1.06 0 0 1 1.2.94 5 5 0 0 1 -.67 2.09c-8 16.28-10.84 23.73-10.14 28.13a6.64 6.64 0 0 0 7.48 5.57c5.17-.63 9.88-7.55 13-11.33l21.48-25.2.35.27c-3.05 6.71-9.18 18.44-8.25 26.05.55 4.41 4.29 8.43 8.86 7.87 7.39-.91 23.19-16.55 31.47-24.94v.83c.67 5.48 4.26 17.09 11.57 16.19 2.73-.33 4.58-2.88 6-5.06 6.1-9.75 13.52-19.91 20.4-29.25.94-1.2 3.84-5.26 5.36-5.45a1.06 1.06 0 0 1 1.2.94 4.85 4.85 0 0 1 -.67 2.09c-8.05 16.28-10.84 23.73-10.14 28.13a6.65 6.65 0 0 0 7.48 5.57c5.18-.64 9.89-7.55 13-11.33l21.47-25.2.35.27c-3.05 6.71-9.18 18.43-8.24 26 .54 4.42 4.28 8.44 8.85 7.88 7.51-.92 23.7-17.06 31.87-25.34 0 .39 0 .78.09 1.17 1.54 10 7.94 19.27 19.05 17.91 15.03-1.81 30.03-18.14 38.03-30.14l-.11-.28a50.81 50.81 0 0 0 7.38-11.12l15.4-5.44.34.27c-5.19 8-12.12 17.09-10.85 27.44.71 5.79 5.4 11.24 11.79 10.45 8.64-1.05 24.05-20.1 29.05-27.32zm-75.19-12.09c1-.43 1.9.39 2 1.45.47 2.57-7.37 14.2-20.2 20.41 2.89-10.55 10.82-18.94 18.2-21.86z"/><path d="m243.57 112.5c-4.27.52-20.22 12.83-24.88 16.34-3.4 2.58-6.27 4.33-6 8.78 0 .93 0 3.56 1.64 3.35a23.31 23.31 0 0 0 3.93-2l13.74-7.28.35.26a469.77 469.77 0 0 0 -22.89 43.91c-3.27 7.36-7.74 25.06-6.8 32.67 1 7.92 7.65 8.18 13.82 10.67a9.64 9.64 0 0 0 3.37 1 1.93 1.93 0 0 0 1.86-2.39c-.22-1.83-.88-3.44-1.11-5.27-1.25-10.2 8.6-33.2 12.83-42.83 18.9-43.58 19-43.12 18.42-47.54-.27-2.31-4.33-10.17-8.28-9.67z"/><path d="m324.29 130.7c-3.19.4-8 5.62-10 7.72-7.91 8.55-26.41 22.72-38.13 24.15-1.83.23-2.54-.46-2.74-2.13-1.2-9.74 9.39-25.42 44.79-39.19l.34.27c-7.78 8.37-7 8.58-6.95 8.89a1.85 1.85 0 0 0 1.9 1.62c2-.24 3.09-1.3 4.63-2.58l5.2-4.19c2.41-1.84 8.12-5.63 7.69-9.13s-10.87-14.13-16.83-13.54c-26.39 2.77-59.64 31.42-57.34 50.15 1.57 12.78 16.54 21.45 21.71 20.82 7.46-.92 23.21-13.67 28.9-18.85l.35.27-24.57 37.78c-5.37.35-5.77 3.34-7.86 7.76-.72 1.64-3.24 6.28-3 8.25s1.88 2.71 3.69 2.33c6.16-1.37 10.94-5.21 18.64-16.81l34.29-51.95c1.32-1.87 4.32-6.41 4-8.84s-6.89-3.02-8.71-2.8z"/></svg>